<?xml version="1.0" encoding="UTF-8"?>
<svg version="1.1" xmlns="http://www.w3.org/2000/svg" width="694" height="693">
<path d="M0 0 C229.02 0 458.04 0 694 0 C694 228.69 694 457.38 694 693 C464.98 693 235.96 693 0 693 C0 464.31 0 235.62 0 0 Z " fill="#FEF9F9" transform="translate(0,0)"/>
<path d="M0 0 C4.02443253 2.24439506 6.20282311 4.71814622 8.25 8.8125 C8.978107 18.25401865 8.40581933 26.20819801 4.25 34.8125 C3.67894531 35.99714844 3.10789062 37.18179688 2.51953125 38.40234375 C-2.66055571 48.75456666 -8.78501387 58.21806974 -17.30322266 66.15063477 C-22.21298718 70.63303252 -22.21298718 70.63303252 -24.6875 76.625 C-24.40547572 78.60538659 -24.40547572 78.60538659 -23.75 80.8125 C-23.37488281 82.44058594 -23.37488281 82.44058594 -22.9921875 84.1015625 C-20.41730664 94.20634704 -17.42542213 102.64331093 -8.75 108.8125 C-6.28630468 110.04434766 -4.5605499 109.97982342 -1.8125 110 C-0.93722656 110.01417969 -0.06195313 110.02835937 0.83984375 110.04296875 C3.51244335 109.97913349 3.51244335 109.97913349 6.25 107.8125 C6.39845926 105.06291087 6.37628673 102.49039409 6.25 99.75 C6.06228631 91.63474924 6.60128206 83.74606907 7.5625 75.6875 C7.68044922 74.64585693 7.79839844 73.60421387 7.91992188 72.53100586 C9.83835186 57.22414814 9.83835186 57.22414814 14.25 52.8125 C17.05379471 52.45303914 18.59209304 52.31750334 20.890625 54.046875 C24.89455379 59.2473802 22.00825913 69.12529291 21.25 75.3125 C20.46165795 81.89743355 19.97839407 88.42977034 19.875 95.0625 C19.83632813 96.24102539 19.83632813 96.24102539 19.796875 97.44335938 C19.77824412 102.83234135 20.86299184 105.60886142 24.25 109.8125 C28.79934828 109.52816573 31.5701672 108.81066694 35.375 106.25 C37.87704537 104.5722719 39.09267088 103.83644139 42.125 103.375 C44.25 103.8125 44.25 103.8125 46.25 105.8125 C46.6875 108.625 46.6875 108.625 46.25 111.8125 C41.84167121 117.25808262 36.08839204 121.20346658 29.25 122.8125 C23.43623108 123.40006175 20.24531073 122.91769316 15.25 119.8125 C12.04432048 120.01711784 9.54454361 120.69605253 6.5625 121.875 C-0.82766253 123.96655543 -7.8374773 123.58109454 -14.69140625 120.0625 C-26.85133669 112.67886102 -32.15243728 99.73636085 -35.4375 86.375 C-38.81436294 70.59183627 -39.06641233 53.62198831 -35.75 37.8125 C-35.62109375 37.18102051 -35.4921875 36.54954102 -35.359375 35.89892578 C-32.74831374 23.39665675 -28.89941541 9.19802951 -17.875 1.50390625 C-11.74855285 -1.95418599 -6.75964225 -2.14055338 0 0 Z " fill="#FF9292" transform="translate(432.75,277.1875)"/>
<path d="M0 0 C229.02 0 458.04 0 694 0 C694 228.69 694 457.38 694 693 C693.34 693 692.68 693 692 693 C692 465.3 692 237.6 692 3 C463.97 3 235.94 3 1 3 C1 230.7 1 458.4 1 693 C0.67 693 0.34 693 0 693 C0 464.31 0 235.62 0 0 Z " fill="#DEDEDE" transform="translate(0,0)"/>
<path d="M0 0 C2.5625 0.3125 2.5625 0.3125 4.203125 1.546875 C8.20705379 6.7473802 5.32075913 16.62529291 4.5625 22.8125 C3.77415795 29.39743355 3.29089407 35.92977034 3.1875 42.5625 C3.16171875 43.34818359 3.1359375 44.13386719 3.109375 44.94335938 C3.09074412 50.33234135 4.17549184 53.10886142 7.5625 57.3125 C12.28794338 56.84922124 15.91361513 56.46493795 19.5625 53.3125 C20.00412356 50.34296227 20.15994669 47.84121399 20.125 44.875 C20.43185818 31.42013983 24.57230467 18.21822973 34.125 8.3125 C39.54872413 3.31885091 44.20157577 1.16505816 51.5625 1.1875 C52.8309375 1.18363281 52.8309375 1.18363281 54.125 1.1796875 C56.5625 1.3125 56.5625 1.3125 58.8125 1.8828125 C59.67875 2.09550781 59.67875 2.09550781 60.5625 2.3125 C60.8925 1.9825 61.2225 1.6525 61.5625 1.3125 C63.9375 1 63.9375 1 66.5625 1.3125 C69.17865581 4.08400948 69.95790968 5.96804306 69.875 9.75 C69.72329628 14.91551183 68.91680125 19.92427544 68.07421875 25.015625 C65.73657618 40.05396412 65.73657618 40.05396412 67.625 54.9375 C69.44278986 57.55744232 69.44278986 57.55744232 72.6875 58.5625 C77.51842042 58.25082771 79.60320854 56.49426983 83.4140625 53.69140625 C86.26483015 51.86173174 88.25876529 51.66786884 91.5625 52.3125 C93.5625 54.3125 93.5625 54.3125 93.625 57.5625 C91.93029089 63.54382628 87.96336623 65.9167252 82.75390625 68.9453125 C77.14025825 71.35018006 71.53801634 71.29031177 65.5625 70.3125 C62.26524655 68.47217249 59.78889629 66.3686092 57.5625 63.3125 C57.5625 62.6525 57.5625 61.9925 57.5625 61.3125 C56.80324219 61.87839844 56.04398437 62.44429688 55.26171875 63.02734375 C54.26785156 63.76082031 53.27398437 64.49429688 52.25 65.25 C50.77080078 66.34634766 50.77080078 66.34634766 49.26171875 67.46484375 C43.8579137 71.16383042 37.9141849 71.09913818 31.5625 70.3125 C28.91251957 68.91674604 27.59597017 67.57191131 25.5625 65.3125 C24.5725 65.7146875 24.5725 65.7146875 23.5625 66.125 C22.5725 66.516875 21.5825 66.90875 20.5625 67.3125 C19.96953125 67.57675781 19.3765625 67.84101563 18.765625 68.11328125 C13.69361749 70.25366842 9.05603394 71.22128164 3.5625 70.3125 C-2.07959033 67.49145483 -6.21788776 63.60057461 -8.4140625 57.6796875 C-11.57963981 46.34869581 -10.54831719 35.1744047 -9.125 23.625 C-9.00705078 22.56216797 -8.88910156 21.49933594 -8.76757812 20.40429688 C-6.41190868 0.82203957 -6.41190868 0.82203957 0 0 Z " fill="#FF9292" transform="translate(305.4375,329.6875)"/>
<path d="M0 0 C2.42578125 1.37109375 2.42578125 1.37109375 4 3 C4.4375 5.5625 4.4375 5.5625 4 8 C0.82465767 10.11689489 -0.15889616 10.22908034 -3.8125 10.375 C-8.59470698 10.79900382 -11.35239169 11.69170409 -15 15 C-21.68922573 23.14084656 -24.33737202 33.14323289 -24.4375 43.5 C-24.4475708 44.18255859 -24.4576416 44.86511719 -24.46801758 45.56835938 C-24.41473352 48.60668449 -24.14802784 50.73415409 -22.66015625 53.40625 C-19.68123588 56.26601356 -16.30816276 56.33661536 -12.31640625 56.28515625 C-6.57983164 55.57896747 -1.45002698 53.00386483 3.25 49.75 C6.47774842 47.69597828 8.24209304 47.48755814 12 48 C14 50 14 50 14.125 53.25 C12.50428177 58.65239411 9.83246787 60.3277645 5 63 C-4.93072233 67.97104886 -14.1568191 71.09443758 -25.375 68.4375 C-31.47230651 66.03553077 -34.4208842 60.79185521 -37 55 C-38.16295749 50.82170962 -38.13358247 46.75877482 -38.125 42.4375 C-38.12886719 40.48650391 -38.12886719 40.48650391 -38.1328125 38.49609375 C-38.0287834 35.75768065 -37.82835366 33.58367451 -37 31 C-39.31 31.66 -41.62 32.32 -44 33 C-43.96519531 33.76183594 -43.93039063 34.52367187 -43.89453125 35.30859375 C-43.6003074 46.53113195 -46.2102163 56.52288245 -54 65 C-59.5482928 68.88380496 -65.31577578 69.96745351 -72 69 C-78.13056111 66.46019611 -83.24853084 62.00859259 -85.93359375 55.86328125 C-90.7105731 42.40088491 -89.74024896 29.26682681 -85 16 C-81.89318587 9.62521136 -78.03772787 5.6454206 -72 2 C-66.29288581 0.0976286 -61.3089175 0.77275256 -55.85546875 3.01953125 C-51.27002991 5.44257367 -48.23724896 9.41363963 -46 14 C-45.3125 17.3125 -45.3125 17.3125 -45 20 C-44.43152344 19.66226562 -43.86304688 19.32453125 -43.27734375 18.9765625 C-39.57260498 16.83659653 -36.52559539 15.11580915 -32.3125 14.1875 C-28.68299254 12.88635582 -28.17003142 12.22415818 -26.0625 9.1875 C-19.42011889 -0.30902925 -11.144198 -1.54067253 0 0 Z " fill="#FF9292" transform="translate(280,331)"/>
<path d="M0 0 C4.92235388 3.5743862 9.00486252 7.01249011 10.1640625 13.15625 C9.5390625 15.84375 9.5390625 15.84375 8.4140625 17.71875 C5.6564574 19.37331306 3.71130636 19.15628634 0.5390625 18.84375 C-1.875 17.1640625 -1.875 17.1640625 -4.0859375 14.96875 C-8.51327389 10.63462069 -11.41179806 8.5592291 -17.7109375 8.40625 C-23.48770324 8.53719002 -27.22543346 9.90530619 -31.4609375 13.84375 C-35.12039671 17.86915513 -36.76395639 21.51073162 -36.9609375 26.96875 C-36.66422008 31.94447285 -35.69382012 35.66335693 -32.01733398 39.25341797 C-27.78300041 42.91544484 -23.39659461 45.87303366 -18.5859375 48.71875 C-7.87490301 55.26574982 0.97707564 62.26259983 5.9140625 74.15625 C7.7746908 85.13395699 6.67921153 95.67893251 1.03125 105.453125 C-5.1927475 114.07987502 -14.14993117 119.4360348 -24.4609375 121.84375 C-35.57262039 123.02386907 -44.23042009 120.98980852 -53.32421875 114.578125 C-58.90862248 110.04526347 -63.53774211 104.42093963 -66.4609375 97.84375 C-66.31792542 94.05392994 -66.15267676 92.53548926 -63.4609375 89.84375 C-58.97952304 89.86506469 -57.00488352 90.35049158 -53.65234375 93.390625 C-52.76260825 94.44716518 -51.88666067 95.51544012 -51.0234375 96.59375 C-44.13395157 104.72847939 -44.13395157 104.72847939 -34.359375 108.26953125 C-27.61661673 108.54079164 -21.89141984 108.07433078 -16.4609375 103.84375 C-11.66245076 99.313635 -8.77019489 95.05499245 -8.125 88.35546875 C-7.83457967 77.89694472 -7.83457967 77.89694472 -12.4609375 68.84375 C-17.31964943 64.06129588 -23.18699249 60.77224702 -29.0234375 57.34375 C-37.68857105 52.25209952 -45.73972427 47.13785881 -49.03125 37.10546875 C-50.88648401 27.34019157 -50.32208759 18.08257932 -45.29296875 9.40234375 C-42.4673211 5.45607678 -39.49408043 2.5350108 -35.4609375 -0.15625 C-34.51347656 -0.80400391 -34.51347656 -0.80400391 -33.546875 -1.46484375 C-23.43952841 -7.10388461 -9.67391768 -5.64978112 0 0 Z " fill="#FF9292" transform="translate(170.4609375,279.15625)"/>
<path d="M0 0 C3.35570098 2.43288321 5.64707145 5.10664291 7.5 8.8125 C8.07376918 15.46601571 7.81169919 20.87428076 4.5 26.8125 C4.02433594 27.68841797 4.02433594 27.68841797 3.5390625 28.58203125 C0.12367326 34.14112224 -4.83107553 36.83516244 -10.5 39.8125 C-11.13292969 40.19535156 -11.76585937 40.57820313 -12.41796875 40.97265625 C-15.26395114 42.1206604 -17.695202 42.00390865 -20.75 41.9375 C-21.82765625 41.91945313 -22.9053125 41.90140625 -24.015625 41.8828125 C-25.24539063 41.84800781 -25.24539063 41.84800781 -26.5 41.8125 C-26.38541307 43.25086751 -26.25790884 44.68820966 -26.125 46.125 C-26.05539062 46.92550781 -25.98578125 47.72601563 -25.9140625 48.55078125 C-25.60435574 51.08474441 -25.60435574 51.08474441 -23.5 53.8125 C-16.47815279 56.15311574 -10.13525735 55.18582624 -3.59375 51.97265625 C-1.61910112 50.87849446 0.27748688 49.70213545 2.1875 48.5 C5.95268449 46.58188714 7.52294427 46.58150656 11.5 47.8125 C12.5 48.8125 12.5 48.8125 12.5 52 C11.16051931 57.10677014 8.90471829 59.22268879 4.5 61.8125 C-5.55265353 66.67202388 -16.61409055 70.68333228 -27.78515625 67.07421875 C-33.02094846 64.37295016 -36.0855323 60.27852447 -38.25 54.9375 C-42.1320562 42.00446195 -39.290045 27.89305782 -33.3125 16.0625 C-25.58475028 3.32602361 -15.34341571 -5.20580176 0 0 Z " fill="#FF9292" transform="translate(578.5,333.1875)"/>
<path d="M0 0 C0.86777573 -0.0127597 1.73555145 -0.02551941 2.62962341 -0.03866577 C4.03124474 -0.04200424 4.03124474 -0.04200424 5.46118164 -0.04541016 C6.42407608 -0.05206696 7.38697052 -0.05872375 8.37904358 -0.06558228 C10.41576222 -0.07570859 12.45251403 -0.0803993 14.48925781 -0.08007812 C17.60610564 -0.08445128 20.72153754 -0.12077121 23.83813477 -0.15869141 C25.81664554 -0.16455954 27.79516305 -0.16852895 29.77368164 -0.17041016 C30.70607162 -0.18478119 31.63846161 -0.19915222 32.59910583 -0.21395874 C39.03958682 -0.16845561 39.03958682 -0.16845561 42.29443359 2.15039062 C43.68383789 4.29052734 43.68383789 4.29052734 43.82446289 6.99365234 C42.20031053 11.68812012 39.45677852 15.13788018 36.43383789 19.04052734 C35.1556059 20.73126243 33.87828424 22.42268608 32.60180664 24.11474609 C31.95002441 24.97245605 31.29824219 25.83016602 30.62670898 26.71386719 C27.60758712 30.71786469 24.67472876 34.78244252 21.74633789 38.85302734 C21.24005859 39.55331055 20.7337793 40.25359375 20.2121582 40.97509766 C16.31518721 46.375805 12.49232656 51.82715546 8.68383789 57.29052734 C9.63750244 57.30510986 10.59116699 57.31969238 11.57373047 57.3347168 C15.11317374 57.39270527 18.65198113 57.46993692 22.19091797 57.55297852 C23.72238848 57.58622552 25.25398145 57.61425828 26.78564453 57.63696289 C28.98791676 57.67051453 31.18906701 57.72282645 33.39086914 57.77880859 C34.07534622 57.78519852 34.7598233 57.79158844 35.46504211 57.798172 C38.30163763 57.88584335 40.25013659 57.98964878 42.61621094 59.63110352 C44.29113607 62.2344573 44.06731081 64.28665615 43.68383789 67.29052734 C40.48858694 69.42069465 39.65504177 69.54498126 35.98461914 69.56518555 C35.03353271 69.57471756 34.08244629 69.58424957 33.10253906 69.59407043 C32.07749268 69.59315903 31.05244629 69.59224762 29.99633789 69.59130859 C28.9422876 69.59559372 27.8882373 69.59987885 26.80224609 69.60429382 C24.57300536 69.61003854 22.34374588 69.61053635 20.11450195 69.60620117 C16.69718604 69.60303969 13.28073431 69.62650452 9.86352539 69.65185547 C7.69946399 69.65412822 5.53540025 69.65483207 3.37133789 69.65380859 C2.3462915 69.66301834 1.32124512 69.67222809 0.26513672 69.68171692 C-1.16149292 69.67237373 -1.16149292 69.67237373 -2.61694336 69.6628418 C-3.87244995 69.66378593 -3.87244995 69.66378593 -5.15332031 69.66474915 C-7.82095615 69.20318627 -8.72387779 68.45115487 -10.31616211 66.29052734 C-10.46733315 60.25257795 -6.76002383 56.27441562 -3.25366211 51.72802734 C-2.63821533 50.91172852 -2.02276855 50.09542969 -1.38867188 49.25439453 C0.62409117 46.59089614 2.65305286 43.94030399 4.68383789 41.29052734 C6.12196326 39.40168041 7.55945836 37.51235344 8.99633789 35.62255859 C11.08140335 32.88157073 13.16835573 30.1422108 15.26416016 27.40942383 C18.82686597 22.76149224 22.31236824 18.07917905 25.68383789 13.29052734 C24.79599609 13.27594482 23.9081543 13.2613623 22.9934082 13.24633789 C19.69055827 13.18518201 16.38852874 13.11101356 13.08618164 13.02807617 C11.65855875 12.99487941 10.23080626 12.96683103 8.80297852 12.9440918 C6.74707975 12.91044721 4.69236277 12.85813173 2.63696289 12.80224609 C1.40107422 12.77606201 0.16518555 12.74987793 -1.1081543 12.72290039 C-4.47021261 12.26976452 -5.87572266 11.57910538 -8.31616211 9.29052734 C-8.00366211 5.91552734 -8.00366211 5.91552734 -7.31616211 2.29052734 C-4.21857633 0.22547016 -3.5146691 0.03512048 0 0 Z " fill="#FF9494" transform="translate(491.316162109375,330.70947265625)"/>
<path d="M0 0 C-0.49104454 9.88862106 -1.94312047 19.3407324 -4 29 C-4.27070313 30.48113281 -4.27070313 30.48113281 -4.546875 31.9921875 C-5.93556167 38.16621338 -8.61009008 41.06319432 -13.6484375 44.8203125 C-16.43376716 46.21760412 -17.93458354 46.6290594 -21 46 C-24.8969086 41.40233151 -24.54718375 36.66676963 -24.4140625 30.90625 C-23.362523 20.98606606 -20.00930732 11.29042927 -13 4 C-12.21625 3.175 -11.4325 2.35 -10.625 1.5 C-6.89859597 -0.62937373 -4.24948366 -0.28810059 0 0 Z " fill="#FFF7F7" transform="translate(362,342)"/>
<path d="M0 0 C2.3837214 3.57558211 2.5833357 5.87877116 2 10 C-1.36441947 23.72863785 -10.47920397 36.77789534 -20 47 C-20.33 47 -20.66 47 -21 47 C-21.56617453 32.15364573 -20.64865253 15.06081566 -11 3 C-7.63850112 -0.47741264 -4.72151286 -0.52461254 0 0 Z " fill="#FFF6F6" transform="translate(428,289)"/>
<path d="M0 0 C0.66 0 1.32 0 2 0 C2.37125 0.7425 2.7425 1.485 3.125 2.25 C6.01675997 6.49124796 10.11242902 8.3486682 15.078125 9.46875 C16.71088833 9.70769098 18.35554583 9.86296215 20 10 C21.54924223 15.81756266 20.04354223 20.46748323 18 26 C16.12208716 28.84532249 15.01772321 30.49113839 12 32 C8.02548001 32.529936 6.50366773 32.3777508 3.25 29.9375 C-0.98316466 24.41086836 -1.30696373 18.50875663 -1.1875 11.8125 C-1.18685547 11.11447266 -1.18621094 10.41644531 -1.18554688 9.69726562 C-1.15672257 6.33122677 -1.03932706 3.21775659 0 0 Z " fill="#FFF6F6" transform="translate(204,356)"/>
<path d="M0 0 C2 2 2 2 2.375 5.1875 C1.93046153 9.7069744 0.91162224 12.5284504 -2 16 C-7.17276991 19.85422071 -11.6250242 20.71088545 -18 21 C-19.32244156 17.03267532 -18.32193834 15.88250251 -16.5 12.1875 C-12.90845802 5.32865247 -8.71589137 -1.62156118 0 0 Z " fill="#FFF5F5" transform="translate(573,343)"/>
<path d="M0 0 C2.75387823 0.89501042 3.96886237 1.34566714 5.5 3.8125 C5.375 6.875 5.375 6.875 4.5 9.8125 C1.26746204 11.96752531 0.24849077 12.28106135 -3.5 11.8125 C-5.375 10.75 -5.375 10.75 -6.5 8.8125 C-6.375 5.25 -6.375 5.25 -5.5 1.8125 C-2.5 -0.1875 -2.5 -0.1875 0 0 Z " fill="#FF9696" transform="translate(452.5,310.1875)"/>
<path d="M0 0 C2.75387823 0.89501042 3.96886237 1.34566714 5.5 3.8125 C5.375 6.875 5.375 6.875 4.5 9.8125 C1.26746204 11.96752531 0.24849077 12.28106135 -3.5 11.8125 C-5.375 10.75 -5.375 10.75 -6.5 8.8125 C-6.375 5.25 -6.375 5.25 -5.5 1.8125 C-2.5 -0.1875 -2.5 -0.1875 0 0 Z " fill="#FF9696" transform="translate(308.5,310.1875)"/>
<path d="M0 0 C2.375 0.3125 2.375 0.3125 5 1 C7.29013653 4.4352048 7.17842973 5.985331 7 10 C3.96846314 9.67226629 2.38426897 9.35865103 0.125 7.25 C-1.29737468 4.40525065 -0.91172698 2.98383376 0 0 Z " fill="#FFF4F4" transform="translate(217,345)"/>
</svg>
